<svg width="256" height="256" viewBox="0 0 256 256" fill="none" xmlns="http://www.w3.org/2000/svg">
<path d="M128 199.029C88.8363 199.029 56.9707 167.164 56.9707 128C56.9707 88.8363 88.8363 56.9707 128 56.9707C167.164 56.9707 199.029 88.8363 199.029 128C199.029 167.164 167.164 199.029 128 199.029ZM128 60.2223C90.6283 60.2223 60.2223 90.6283 60.2223 128C60.2223 165.372 90.6283 195.778 128 195.778C165.372 195.778 195.778 165.372 195.778 128C195.778 90.6283 165.372 60.2223 128 60.2223Z" fill="#456149"/>
<path d="M128 252.5C59.3552 252.5 3.5 196.645 3.5 128C3.5 59.3552 59.3552 3.5 128 3.5C196.645 3.5 252.5 59.3552 252.5 128C252.5 196.645 196.645 252.5 128 252.5ZM128 6.96837C61.2628 6.96837 6.96837 61.2628 6.96837 128C6.96837 194.737 61.2628 249.032 128 249.032C194.737 249.032 249.032 194.737 249.032 128C249.032 61.2628 194.737 6.96837 128 6.96837Z" fill="#456149"/>
<path d="M128 242.066C65.1069 242.066 13.934 190.893 13.934 128C13.934 65.1069 65.1069 13.934 128 13.934C190.893 13.934 242.066 65.1069 242.066 128C242.066 190.893 190.893 242.066 128 242.066ZM128 17.3301C66.9712 17.3301 17.3301 66.9712 17.3301 128C17.3301 189.029 66.9712 238.67 128 238.67C189.029 238.67 238.67 189.029 238.67 128C238.67 66.9712 189.029 17.3301 128 17.3301Z" fill="#456149"/>
<path d="M48.7044 116.699C48.0685 121.569 43.4441 124.445 37.5045 123.665C31.5649 122.884 27.8364 118.91 28.4723 114.054C28.7035 112.349 29.4261 110.86 30.5244 109.719C31.1891 109.155 31.1169 108.808 30.2353 108.693L29.4116 108.577V108.462L37.5478 109.531V109.647L36.7096 109.531C35.8281 109.415 34.7731 109.3 33.8916 109.386C30.8568 109.863 29.0503 111.366 28.7324 113.765C28.1977 117.884 31.4493 120.471 37.808 121.309C44.1666 122.147 47.9818 120.471 48.5165 116.352C48.8634 113.722 47.7217 111.294 45.554 109.618L45.6551 109.459C47.924 111.222 49.0801 113.809 48.7044 116.684V116.699Z" fill="#456149"/>
<path d="M31.9262 99.4727L31.6227 100.253L31.5215 100.21L33.8916 93.9522L33.9927 93.9955L33.6893 94.7759C33.3713 95.6141 33.6315 96.25 34.4407 96.5535L41.5509 99.2559L44.2244 92.218L37.1143 89.5156C36.305 89.2121 35.6836 89.5156 35.3656 90.3393L35.0622 91.1197L34.961 91.0763L37.331 84.8188L37.4322 84.8622L37.1287 85.6425C36.8108 86.4807 37.0709 87.1166 37.8802 87.4201L53.4156 93.3019C54.2249 93.6053 54.8463 93.3019 55.1643 92.4781L55.4677 91.6977L55.5689 91.7411L53.1988 97.9986L53.0977 97.9553L53.4012 97.1749C53.7191 96.3367 53.459 95.7008 52.6497 95.3973L44.4412 92.2903L41.7677 99.3282L49.9761 102.435C50.7854 102.739 51.4068 102.435 51.7248 101.611L52.0283 100.831L52.1294 100.874L49.7594 107.132L49.6582 107.089L49.9617 106.308C50.2796 105.47 50.0195 104.834 49.2102 104.531L33.6748 98.6489C32.8655 98.3454 32.2441 98.6489 31.9262 99.4727Z" fill="#456149"/>
<path d="M62.9681 77.8821C63.7918 78.2 64.5144 77.9254 65.0202 77.1884L65.4827 76.4947L65.5694 76.5525L61.812 82.0875L61.7253 82.0297L62.2021 81.336C62.708 80.599 62.5345 80.0498 61.7108 79.7319L56.436 77.7809L53.6179 81.9285L57.3898 86.105C57.9968 86.7553 58.5748 86.6975 59.0662 85.9605L59.5431 85.2668L59.6298 85.3246L56.9996 89.1976L56.9129 89.1398L57.3898 88.4461C57.8956 87.7091 57.8811 86.9287 57.2742 86.2784L46.0453 73.8934L44.2678 73.2287L45.5251 71.3789L62.9681 77.8821ZM56.2337 77.6942L46.4789 74.0524L53.4734 81.7551L56.2192 77.6942H56.2337Z" fill="#456149"/>
<path d="M55.092 58.9216L54.4561 59.4708L54.3839 59.3841L57.5777 56.6383L72.2604 62.9681L68.1562 47.5338L71.0754 45.0193L71.1477 45.106L70.5118 45.6551C69.8326 46.2332 69.7603 46.9269 70.3239 47.5772L81.1626 60.15C81.7262 60.8004 82.4199 60.8293 83.0846 60.2512L83.7205 59.702L83.7928 59.7887L72.0147 69.9337L71.9425 69.847L72.5784 69.2979C73.2576 68.7198 73.5466 67.9105 73.3443 67.0579L72.9685 65.6416L57.1297 58.7916L68.0261 71.4367C68.5897 72.087 69.2834 72.1159 69.9482 71.5378L70.584 70.9887L70.6563 71.0754L67.1157 74.1391L67.0434 74.0524L67.6793 73.5033C68.3585 72.9252 68.4308 72.2315 67.8672 71.5812L57.0285 59.0084C56.4649 58.358 55.7712 58.3291 55.1064 58.9072L55.092 58.9216ZM78.4746 64.2254L79.2983 63.5172C79.9775 62.9392 80.0498 62.2455 79.4862 61.5952L68.8643 49.268L72.5205 63.0692L76.1623 64.6445C76.9716 64.9768 77.8098 64.8034 78.489 64.2254H78.4746ZM74.7172 67.477C75.1941 66.9567 75.0496 66.5376 74.3125 66.2486L73.2431 65.7717L73.5322 66.9133C73.7056 67.6793 74.1102 67.8816 74.7172 67.477Z" fill="#456149"/>
<path d="M78.8503 40.8283L78.0988 41.2041L78.0555 41.1029L83.6193 38.3282C86.8131 36.7385 90.0936 37.6923 91.6977 40.9295C93.3886 44.3256 92.2324 48.1408 88.7496 49.875L88.6485 49.6727C91.1197 48.4443 91.4087 45.5829 89.6023 41.97C87.9259 38.6028 85.8593 37.4611 83.706 38.5305L83.3881 38.6895C82.5933 39.0941 82.3476 39.73 82.7378 40.5104L90.0936 55.2799C90.4983 56.1036 91.2208 56.2192 92.4348 55.6122L93.1862 55.2365L93.2296 55.3377L86.7409 58.5748L86.6975 58.4737L87.449 58.0979C88.2438 57.6933 88.4895 57.0574 88.0993 56.277L80.6857 41.4064C80.2955 40.626 79.6452 40.4381 78.8359 40.8283H78.8503Z" fill="#456149"/>
<path d="M109.647 47.9674C110.08 48.7478 110.817 48.9934 111.67 48.7333L112.465 48.5021L112.494 48.6033L106.077 50.4964L106.048 50.3952L106.843 50.164C107.696 49.9183 107.927 49.3836 107.493 48.6033L104.661 43.7475L99.8484 45.1638L100.109 50.7854C100.166 51.667 100.643 51.9994 101.496 51.7392L102.305 51.508L102.334 51.6092L97.8396 52.9387L97.8107 52.8376L98.6056 52.6063C99.4582 52.3607 99.9496 51.7392 99.8918 50.8577L99.0969 34.1517L98.1431 32.5187L100.282 31.8828L109.618 47.9818L109.647 47.9674ZM104.56 43.5308L99.3426 34.5275L99.8484 44.9181L104.545 43.5308H104.56Z" fill="#456149"/>
<path d="M122.003 48.1553C117.104 48.5021 113.361 44.5424 112.956 38.5594C112.537 32.5765 115.687 28.1399 120.586 27.793C122.306 27.6774 123.91 28.0965 125.254 28.9492C125.933 29.4839 126.266 29.3538 126.194 28.4578L126.136 27.6196H126.251L126.829 35.7847H126.714L126.656 34.961C126.598 34.065 126.497 33.0245 126.237 32.1719C125.168 29.2815 123.332 27.8219 120.919 27.9954C116.771 28.2844 114.878 31.9984 115.326 38.386C115.774 44.788 118.159 48.1986 122.306 47.8951C123.896 47.7795 125.298 47.1581 126.425 46.1465L126.035 40.4815C125.977 39.571 125.355 39.1808 123.997 39.282L123.159 39.3398V39.2242L130.385 38.7184V38.834L129.561 38.8918C128.665 38.9496 128.202 39.4554 128.26 40.3225L128.491 43.7186C127.22 46.291 124.907 47.9385 122.003 48.1408V48.1553Z" fill="#456149"/>
<path d="M136.396 28.1977L135.573 28.0676V27.952L139.749 28.5879L145.588 47.4038L148.03 31.3192C148.174 30.4088 147.654 29.903 146.31 29.7006L145.486 29.5706V29.455L150.674 30.2353V30.351L149.836 30.2209C148.955 30.0908 148.391 30.481 148.261 31.3337L145.746 47.8807L146.18 49.268L143.781 48.9067L137.798 29.6573L135.284 46.1609C135.139 47.0714 135.659 47.5772 137.018 47.7795L137.841 47.9096V48.0252L132.653 47.2448V47.1292L133.492 47.2593C134.373 47.3893 134.937 46.9991 135.067 46.1465L137.567 29.7295C137.697 28.8769 137.278 28.3277 136.396 28.1977Z" fill="#456149"/>
<path d="M158.695 32.6921L157.915 32.3886L157.958 32.2875L169.606 36.8397L169.577 36.912L168.117 42.7215H168.002L168.074 42.4324C168.84 39.4121 167.265 36.1605 164.519 35.0911L163.32 34.6286C162.481 34.3107 161.845 34.5564 161.528 35.3656L158.796 42.3457L161.022 43.2128C162.756 43.8921 164.678 43.0539 165.357 41.3197L165.458 41.0595L165.56 41.1029L162.843 48.0541L162.742 48.0107L162.843 47.7506C163.522 46.0164 162.684 44.0944 160.95 43.4151L158.724 42.5481L155.588 50.5687C155.27 51.3924 155.516 52.0427 156.325 52.3462L158.088 53.0399C160.834 54.1093 164.201 52.7942 165.69 50.0629L165.82 49.8172L165.906 49.8894L163.045 55.1498L163.016 55.2221L150.848 50.4675L150.891 50.3663L151.672 50.6698C152.51 50.9878 153.146 50.7276 153.464 49.9328L159.504 34.4696C159.822 33.6604 159.519 33.0389 158.695 32.721V32.6921Z" fill="#456149"/>
<path d="M177.988 41.1607L177.294 40.6838L177.352 40.5971L182.887 44.3545L182.829 44.4412L182.135 43.9643C181.398 43.4585 180.719 43.5741 180.228 44.2822L175.95 50.5687L182.179 54.7885L186.456 48.5021C186.948 47.794 186.789 47.1147 186.052 46.6089L185.358 46.132L185.416 46.0453L190.951 49.8027L190.893 49.8894L190.199 49.4125C189.462 48.9067 188.783 49.0223 188.292 49.7305L178.956 63.4594C178.465 64.182 178.624 64.8468 179.361 65.3526L180.054 65.8295L179.997 65.9162L174.462 62.1588L174.52 62.0721L175.213 62.549C175.95 63.0548 176.629 62.9392 177.121 62.2311L182.049 54.9764L175.82 50.7421L170.892 57.9968C170.401 58.7049 170.56 59.3841 171.297 59.8899L171.99 60.3668L171.933 60.4535L166.398 56.6961L166.456 56.6094L167.149 57.0863C167.886 57.5921 168.565 57.4765 169.057 56.7684L178.393 43.0394C178.869 42.3168 178.725 41.6521 177.988 41.1463V41.1607Z" fill="#456149"/>
<path d="M197.295 55.67L196.732 55.0486L196.818 54.9764L201.313 59.9333L201.226 60.0055L200.662 59.3841C200.07 58.7193 199.376 58.676 198.74 59.254L189.246 67.8671C186.644 70.2227 186.182 72.6073 187.902 74.5149C189.939 76.7693 192.989 76.5236 195.243 74.4715L204.738 65.8584C205.374 65.2803 205.388 64.5867 204.795 63.9219L204.232 63.3005L204.319 63.2282L207.469 66.6966L207.382 66.7688L206.819 66.1474C206.226 65.4826 205.533 65.4393 204.897 66.0174L195.402 74.6305C193.075 76.7404 189.867 76.9861 187.743 74.6449C185.156 71.798 185.257 68.4741 187.959 66.0174L197.252 57.5921C197.888 57.014 197.902 56.3204 197.31 55.6556L197.295 55.67Z" fill="#456149"/>
<path d="M215.836 82.1742C215.677 83.0124 215.938 83.2436 216.704 82.7956L217.426 82.3765L217.484 82.4777L210.388 86.5819L210.33 86.4807L211.053 86.0616C211.819 85.6137 212.729 85.0645 213.336 84.4575C215.258 82.2753 215.865 79.6885 214.666 77.6364C213.539 75.6854 211.212 74.9918 209.275 76.119C204.521 78.8648 210.027 87.8825 204.853 90.8596C202.295 92.3336 199.188 91.1775 197.411 88.1138C196.457 86.4663 195.994 84.4864 196.096 82.8245C196.24 81.9719 195.98 81.7262 195.214 82.1742L194.492 82.5933L194.434 82.4921L201.529 78.4023L201.587 78.5035L200.865 78.9226C200.099 79.3706 199.188 79.9197 198.581 80.5267C196.688 82.7522 196.168 85.4836 197.454 87.7091C198.697 89.8624 201.11 90.6428 203.061 89.5156C207.642 86.8709 201.949 78.2867 207.455 75.1074C210.085 73.59 213.134 74.5293 214.738 77.304C215.576 78.7492 215.952 80.5701 215.822 82.1886L215.836 82.1742Z" fill="#456149"/>
<path d="M220.894 90.6428L220.634 89.8479L220.736 89.819L224.681 101.684L224.609 101.713L219.218 104.299L219.16 104.198L219.42 104.083C222.238 102.739 223.727 99.4438 222.788 96.6402L222.383 95.4262C222.108 94.5881 221.487 94.2557 220.678 94.5302L213.568 96.9003L214.319 99.1692C214.912 100.947 216.776 101.872 218.553 101.279L218.813 101.192L218.842 101.294L211.761 103.649L211.732 103.548L211.992 103.461C213.77 102.869 214.695 101.005 214.102 99.227L213.351 96.9581L205.186 99.675C204.333 99.964 204.015 100.571 204.29 101.38L204.882 103.172C205.822 105.976 208.972 107.71 212.036 107.103L212.31 107.045V107.161L206.457 108.317L206.385 108.346L202.252 95.9465L202.353 95.9176L202.613 96.7124C202.888 97.5506 203.509 97.883 204.319 97.6084L220.071 92.3625C220.895 92.0879 221.184 91.4665 220.894 90.6139V90.6428Z" fill="#456149"/>
<path d="M228.106 124.546L222.282 125.89L222.238 125.789L222.513 125.731C225.548 125.037 227.73 122.162 227.427 119.213V119.04L209.666 120.818C208.813 120.904 208.379 121.453 208.481 122.335L208.567 123.173H208.452L207.787 116.525H207.903L207.989 117.349C208.076 118.231 208.596 118.693 209.463 118.607L227.21 116.829V116.656C226.892 113.722 224.189 111.323 221.082 111.251H220.808V111.135L226.805 111.294H226.892L228.221 124.532H228.135L228.106 124.546Z" fill="#456149"/>
<path d="M77.5497 191.139L76.8994 190.691L76.9572 190.604L86.7553 197.353L86.712 197.425L84.0962 202.483L83.9951 202.44L84.1251 202.209C85.4836 199.578 84.7466 196.226 82.4343 194.636L81.4371 193.942C80.7435 193.465 80.0932 193.567 79.6307 194.231L75.5843 200.099L77.463 201.385C78.9226 202.397 80.8735 202.035 81.8852 200.576L82.0297 200.359L82.1164 200.417L78.0844 206.255L77.9977 206.197L78.1422 205.981C79.1538 204.521 78.7925 202.57 77.3329 201.558L75.4542 200.272L70.8153 207.007C70.3384 207.7 70.4395 208.351 71.1043 208.813L72.5928 209.839C74.9051 211.429 78.3012 210.937 80.281 208.726L80.4544 208.524L80.5267 208.611L76.7404 212.845L76.697 212.903L66.4654 205.85L66.5232 205.764L67.1735 206.212C67.8672 206.689 68.5175 206.587 68.9799 205.923L77.9399 192.931C78.4023 192.252 78.2723 191.616 77.5641 191.124L77.5497 191.139Z" fill="#456149"/>
<path d="M99.0825 204.333C99.4293 205.056 99.7617 205.099 100.109 204.319L100.426 203.596L100.528 203.639L97.4061 210.778L97.3049 210.735L97.6229 210.012C97.9697 209.232 98.3454 208.307 98.4611 207.483C98.7067 204.723 97.6951 202.411 95.6286 201.515C93.6632 200.662 91.4954 201.443 90.6428 203.379C88.5473 208.163 97.8541 211.963 95.5852 217.166C94.458 219.738 91.4232 220.605 88.345 219.261C86.6975 218.539 85.2234 217.282 84.3564 215.952C83.9806 215.215 83.6482 215.186 83.3158 215.952L82.9979 216.675L82.8968 216.631L86.0183 209.492L86.1194 209.536L85.8015 210.258C85.4547 211.039 85.0789 211.963 84.9633 212.787C84.761 215.562 85.9171 217.946 88.1571 218.929C90.3248 219.868 92.6082 219.117 93.4753 217.152C95.484 212.541 86.2929 209.189 88.7063 203.654C89.8624 201.009 92.7238 199.998 95.5129 201.226C96.9726 201.862 98.2732 203.047 99.0969 204.347L99.0825 204.333Z" fill="#456149"/>
<path d="M115.89 207.931L115.312 213.596H115.196L115.225 213.336C115.528 210.388 113.606 207.541 110.875 206.905L110.716 206.862L106.872 223.38C106.684 224.175 107.045 224.724 107.869 224.912L108.649 225.085L108.62 225.187L102.435 223.741L102.464 223.64L103.245 223.814C104.068 224.002 104.632 223.669 104.82 222.874L108.664 206.356L108.505 206.327C105.774 205.691 102.797 207.397 101.756 210.171L101.669 210.417L101.568 210.374L103.548 205.041V204.969L115.904 207.83V207.903L115.89 207.931Z" fill="#456149"/>
<path d="M133.275 211.992C133.217 209.897 131.656 208.278 130.153 208.322C128.246 208.379 126.381 211.024 126.425 214.521C126.425 214.579 126.396 214.608 126.353 214.608H126.251C126.251 214.608 126.165 214.594 126.165 214.536L126.064 210.88C126.02 209.29 127.841 208.134 130.486 208.062C132.783 208.004 135.327 209.564 135.414 212.614C135.587 218.813 125.153 220.447 125.298 225.317L130.327 225.172C133.13 225.1 135.558 222.701 135.818 219.753V219.493H135.948L135.443 225.172L135.298 226.906L125.24 227.181L125.182 225.331C125.023 219.478 133.434 217.917 133.275 212.021V211.992Z" fill="#456149"/>
<path d="M140.847 217.166C139.605 211.602 141.556 207.05 145.588 206.139C149.62 205.229 153.348 208.524 154.591 214.088C155.834 219.623 153.868 224.161 149.836 225.071C145.804 225.981 142.09 222.715 140.847 217.18V217.166ZM152.322 214.594C150.992 208.668 148.593 205.735 145.645 206.4C142.697 207.064 141.787 210.735 143.116 216.66C144.446 222.556 146.83 225.461 149.778 224.796C152.727 224.132 153.637 220.475 152.322 214.594Z" fill="#456149"/>
<path d="M159.374 212.469C156.975 207.31 157.915 202.425 161.672 200.691C165.415 198.957 169.75 201.37 172.149 206.53C174.534 211.674 173.58 216.53 169.837 218.264C166.094 219.998 161.759 217.6 159.374 212.469ZM170.04 207.512C167.482 202.006 164.519 199.651 161.788 200.922C159.056 202.194 158.941 205.981 161.499 211.487C164.042 216.964 166.99 219.305 169.736 218.033C172.482 216.761 172.597 213.004 170.054 207.527L170.04 207.512Z" fill="#456149"/>
<path d="M179.245 194.781C178.031 193.075 175.835 192.598 174.606 193.48C173.06 194.593 172.988 197.83 174.982 200.706C175.011 200.749 175.011 200.778 174.968 200.821L174.881 200.879C174.881 200.879 174.794 200.908 174.765 200.865L172.641 197.888C171.716 196.601 172.583 194.607 174.736 193.075C176.615 191.731 179.592 191.63 181.355 194.101C184.954 199.145 177.236 206.327 180.069 210.287L184.159 207.368C186.442 205.735 187.107 202.397 185.691 199.795L185.56 199.564L185.647 199.506L188.407 204.506L189.26 206.009L181.066 211.862L179.982 210.359C176.586 205.605 182.685 199.607 179.245 194.809V194.781Z" fill="#456149"/>
<path d="M119.835 150.154C104.69 150.154 94.0244 137.162 94.0244 118.664C94.0244 100.166 104.69 87.1744 119.835 87.1744C125.168 87.1744 129.98 88.8074 133.94 91.7266C135.919 93.5331 136.945 93.1863 136.945 90.4405V87.8536H137.292V113.144H136.945V110.557C136.945 107.797 136.859 104.531 136.252 101.872C133.593 92.7527 128.246 87.8536 120.774 87.8536C107.956 87.8536 101.337 98.8657 101.337 118.65C101.337 138.434 107.956 149.446 120.774 149.446C124.214 149.446 133.058 150.125 136.989 144.027L137.509 144.287C133.636 150.877 123.376 150.14 119.835 150.14V150.154Z" fill="#456149"/>
<path d="M113.809 108.938H111.222V108.592H131.873V108.938H129.286C126.54 108.938 124.98 110.398 124.98 113.072V136.555H148.203V113.072C148.203 110.412 146.657 108.938 143.897 108.938H141.31V108.592H161.961V108.938H159.374C156.614 108.938 155.068 110.398 155.068 113.072V164.346C155.068 167.019 156.614 168.479 159.374 168.479H161.961V168.826H141.31V168.479H143.897C146.657 168.479 148.203 167.019 148.203 164.346V137.249H124.98V164.346C124.98 167.019 126.526 168.479 129.286 168.479H131.873V168.826H111.222V168.479H113.809C116.554 168.479 118.115 167.019 118.115 164.346V113.072C118.115 110.412 116.569 108.938 113.809 108.938Z" fill="#456149"/>
</svg>
